<?xml version="1.0" standalone="no"?>
<!DOCTYPE svg PUBLIC "-//W3C//DTD SVG 20010904//EN"
 "http://www.w3.org/TR/2001/REC-SVG-20010904/DTD/svg10.dtd">
<svg version="1.0" xmlns="http://www.w3.org/2000/svg"
 width="200.000000pt" height="200.000000pt" viewBox="0 0 200.000000 200.000000"
 preserveAspectRatio="xMidYMid meet">

<g transform="translate(0.000000,200.000000) scale(0.100000,-0.100000)"
fill="#000000" stroke="none">
<path d="M0 1000 l0 -1000 1000 0 1000 0 0 1000 0 1000 -1000 0 -1000 0 0
-1000z m841 865 c52 -27 114 -92 135 -141 23 -56 18 -152 -12 -212 -45 -91
-125 -141 -247 -153 -99 -10 -164 -31 -227 -75 l-50 -34 0 211 c0 241 5 270
63 335 88 99 222 127 338 69z m649 4 c55 -24 93 -60 127 -117 68 -115 26 -371
-94 -578 -58 -100 -209 -252 -308 -310 -158 -92 -312 -136 -475 -136 -109 -1
-148 12 -212 70 -144 129 -107 354 71 438 20 9 76 21 126 26 215 21 343 142
366 344 11 102 33 155 83 205 85 86 203 107 316 58z m39 -1069 c82 -139 126
-302 119 -438 -4 -90 -25 -139 -81 -194 -100 -97 -270 -102 -375 -12 -59 51
-88 112 -101 217 -13 108 -36 162 -97 227 -31 34 -42 51 -33 54 8 2 46 14 84
27 126 39 310 145 376 215 l24 25 23 -28 c13 -15 40 -57 61 -93z m-967 -140
c27 -11 87 -25 134 -31 108 -12 172 -39 223 -94 53 -57 71 -104 71 -180 0
-191 -211 -323 -385 -241 -71 32 -109 68 -139 128 -26 51 -26 55 -26 275 l0
224 38 -30 c20 -17 58 -39 84 -51z"/>
</g>
</svg>
